<svg xmlns="http://www.w3.org/2000/svg" viewBox="0 0 25 25">
    <rect width="23" height="23" x="1" y="1" fill="none" stroke="currentColor" stroke-miterlimit="10" stroke-width="2" rx="4" ry="4"/>
    <path fill="currentColor" d="M21.41 7.36a.86.86 0 00-1.56-.42 6.42 6.42 0 01-4.3.79 9 9 0 00-2.81-.29 9 9 0 00-2.81.29 6.42 6.42 0 01-4.3-.79.86.86 0 00-1.56.42c-.3 1.12.51 3.85.27 5.16-.4 2.25 1.09 6.57 6.89 5.6a1.7 1.7 0 001.51 1.09 1.7 1.7 0 001.51-1.09c5.8 1 7.29-3.35 6.89-5.6-.24-1.31.57-4.04.27-5.16z"/>
    <path fill="#fff" d="M16.35 9.31a4.07 4.07 0 00-3.6 2.17 4.07 4.07 0 100 3.8 4.07 4.07 0 103.6-6z"/>
    <path fill="currentColor" d="M10.5 14A1.5 1.5 0 019 12.5a1.47 1.47 0 01.3-.89h-.34a2 2 0 102 2.35 1.48 1.48 0 01-.46.04zm6.5-1.5a1.52 1.52 0 01.23-.79 2 2 0 00-.69-.13A2 2 0 1018.48 14 1.5 1.5 0 0117 12.5z"/>
</svg>