<svg xmlns="http://www.w3.org/2000/svg" viewBox="0 0 25 25">
    <g fill="none" stroke="currentColor" stroke-miterlimit="10" stroke-width="2">
        <rect width="23" height="23" x="1" y="1" class="cls-1" rx="4" ry="4"/>
        <path d="M11 8.24a2.78 2.78 0 012.53-.74 2.48 2.48 0 011.57 1 .46.46 0 00.63.2 3.29 3.29 0 11.94 6.43 1.17 1.17 0 00-1 .44 2.25 2.25 0 01-2.48.64.36.36 0 00-.5.19 2.74 2.74 0 01-4.82-.11.53.53 0 00-.61-.3 2.48 2.48 0 01-2.56-1.87 2.56 2.56 0 01.9-2.74.42.42 0 00.19-.53 2.89 2.89 0 011.33-3.37 3 3 0 013.66.52z" class="cls-1"/>
    </g>
</svg>