<svg width="21" height="21" viewBox="0 0 21 21" fill="none" xmlns="http://www.w3.org/2000/svg">
<path fill-rule="evenodd" clip-rule="evenodd" d="M20.87 19.229L16.18 14.571C19.0508 11.0119 18.7523 5.8551 15.49 2.651C11.9353 -0.872882 6.20462 -0.872882 2.64995 2.651C-0.732368 6.03303 -0.888274 11.4666 2.29456 15.0371C5.4774 18.6075 10.8932 19.0742 14.64 16.101L19.33 20.759L20.87 19.229ZM4.18995 13.881C2.89751 12.598 2.17063 10.8521 2.17063 9.031C2.17063 7.20985 2.89751 5.46403 4.18995 4.181C6.89181 1.5021 11.2481 1.5021 13.95 4.181C15.2424 5.46403 15.9693 7.20985 15.9693 9.031C15.9693 10.8521 15.2424 12.598 13.95 13.881C11.2479 16.5594 6.89204 16.5594 4.18995 13.881Z" fill="#AAC4D1"/>
</svg>
