<?xml version="1.0" encoding="utf-8"?>
<!-- Generator: Adobe Illustrator 24.0.1, SVG Export Plug-In . SVG Version: 6.00 Build 0)  -->
<svg version="1.1" id="Warstwa_1" xmlns="http://www.w3.org/2000/svg" xmlns:xlink="http://www.w3.org/1999/xlink" x="0px" y="0px"
	 viewBox="0 0 25.9 22.8" style="enable-background:new 0 0 25.9 22.8;" xml:space="preserve">
<style type="text/css">
	
		.st0{fill-rule:evenodd;clip-rule:evenodd;fill:none;stroke:#000000;stroke-width:1.2;stroke-linecap:round;stroke-linejoin:round;stroke-miterlimit:10;}
</style>
<path class="st0" d="M0.7,11.4L12.4,1.2c0.3-0.3,0.8-0.3,1.1,0l11.8,10.2"/>
<path class="st0" d="M13.5,5l7.8,6.8c0.2,0.2,0.3,0.4,0.3,0.6v8.7c0,0.5-0.4,0.9-0.9,0.9h-4.6c-0.5,0-0.9-0.4-0.9-0.9v-3.9
	c0-0.5-0.4-0.9-0.9-0.9h-2.9c-0.5,0-0.9,0.4-0.9,0.9v3.9c0,0.5-0.4,0.9-0.9,0.9H4.9c-0.5,0-0.9-0.4-0.9-0.9v-8.7
	c0-0.3,0.1-0.5,0.3-0.7l8-6.8C12.7,4.7,13.2,4.7,13.5,5z"/>
</svg>
