<?xml version="1.0" encoding="utf-8"?>
<!-- Generator: Adobe Illustrator 24.0.1, SVG Export Plug-In . SVG Version: 6.00 Build 0)  -->
<svg version="1.1" id="Warstwa_1" xmlns="http://www.w3.org/2000/svg" xmlns:xlink="http://www.w3.org/1999/xlink" x="0px" y="0px"
	 viewBox="0 0 28.5 22.5" style="enable-background:new 0 0 28.5 22.5;" xml:space="preserve">
<style type="text/css">
	.st0{fill:none;stroke:#000000;stroke-width:1.2;stroke-linecap:round;stroke-linejoin:round;stroke-miterlimit:10;}
	
		.st1{fill-rule:evenodd;clip-rule:evenodd;fill:none;stroke:#000000;stroke-width:1.2;stroke-linecap:round;stroke-linejoin:round;stroke-miterlimit:10;}
</style>
<path class="st0" d="M25.2,1.4c1.2,0,2.3,1,2.3,2.3s-1,2.3-2.3,2.3S23,4.9,23,3.6S24,1.4,25.2,1.4"/>
<path class="st0" d="M8.8,0.7h7.3c0.1,0,0.2,0,0.2,0c0.4,0.1,1.5,0.6,3.5,2.6C19.9,3.4,20,3.5,20,3.6l2.5,5.5
	c0.1,0.2,0.3,0.4,0.6,0.5l4.4,0.8"/>
<path class="st0" d="M11.4,2.8l3.1,0.3l1.3,1.6C16,5,16,5.5,15.7,5.8l-2.8,3c0,0-3.1,2.6,2.7,7.8l-5.4,3.4"/>
<path class="st0" d="M11.7,21.7l7.4-3c0,0,1.6-0.8,0.2-2.7c-0.9-1.2-1.7-2.6-2.2-3.3c-0.2-0.3-0.2-0.8,0.1-1.1l1.1-1
	c0.4-0.4,1-0.3,1.3,0.2c0.3,0.4,0.7,1,1.3,1.5c0.2,0.1,0.4,0.2,0.6,0.2l4.2,0"/>
<path class="st1" d="M9.5,12.6c0,0-8.3,6.1-8.6,6.3"/>
<path class="st1" d="M10.8,16c0,0-7.4,4-7.6,4"/>
</svg>
