<?xml version="1.0" encoding="utf-8"?>
<!-- Generator: Adobe Illustrator 24.0.1, SVG Export Plug-In . SVG Version: 6.00 Build 0)  -->
<svg version="1.1" id="Warstwa_1" xmlns="http://www.w3.org/2000/svg" xmlns:xlink="http://www.w3.org/1999/xlink" x="0px" y="0px"
	 viewBox="0 0 20.2 19.4" style="enable-background:new 0 0 20.2 19.4;" xml:space="preserve">
<style type="text/css">
	.st0{fill:none;stroke:#000000;stroke-width:1.2;stroke-linecap:round;stroke-linejoin:round;stroke-miterlimit:10;}
</style>
<path class="st0" d="M9.6,1L7.1,5.7C7.1,5.8,6.9,5.9,6.7,6L1.4,7c-0.4,0.1-0.6,0.6-0.3,1l3.7,3.8C4.9,11.9,5,12,5,12.2l-0.9,5.5
	c-0.1,0.5,0.4,0.8,0.8,0.6l5-2.6c0.2-0.1,0.4-0.1,0.5,0l4.9,2.6c0.4,0.2,0.9-0.1,0.8-0.6l-0.9-5.5c0-0.2,0-0.4,0.2-0.5L19.2,8
	c0.3-0.3,0.2-0.9-0.3-1l-5.4-1c-0.2,0-0.3-0.1-0.4-0.3L10.6,1C10.4,0.6,9.8,0.6,9.6,1z"/>
</svg>
