<svg width="26" height="23" viewBox="0 0 26 23" fill="none" xmlns="http://www.w3.org/2000/svg">
<path fill-rule="evenodd" clip-rule="evenodd" d="M25.204 12.046C25.0317 12.0447 24.8653 11.9827 24.734 11.871L12.934 1.67099L1.19902 11.864C0.899849 12.1235 0.447239 12.0927 0.186022 11.795C0.0606267 11.6526 -0.00263092 11.4659 0.0103284 11.2766C0.0232876 11.0873 0.111388 10.911 0.255022 10.787L12.461 0.186994C12.7315 -0.0469097 13.1326 -0.0469097 13.403 0.186994L25.684 10.794C25.9086 10.9914 25.9867 11.3078 25.8796 11.587C25.7726 11.8662 25.503 12.0493 25.204 12.046ZM22.195 11.583L13.424 3.80999C13.151 3.56777 12.74 3.56777 12.467 3.80999L3.73902 11.593C3.58721 11.7286 3.5003 11.9224 3.50002 12.126V22.064C3.50168 22.4592 3.82281 22.7785 4.21802 22.778H11.405V17.125H14.531V22.781H21.718C22.1132 22.7815 22.4344 22.4622 22.436 22.067V12.119C22.4371 11.9133 22.3492 11.7172 22.195 11.581V11.583ZM20.995 21.35H15.961V16.411C15.9608 16.2211 15.8851 16.0391 15.7506 15.905C15.6161 15.7709 15.4339 15.6957 15.244 15.696H10.682C10.4921 15.6957 10.3099 15.7709 10.1754 15.905C10.041 16.0391 9.96529 16.2211 9.96502 16.411V21.35H4.93102V12.45L12.943 5.30499L20.995 12.441V21.354V21.35Z" fill="currentColor"/>
</svg>
