<svg width="20" height="19" viewBox="0 0 20 19" fill="none" xmlns="http://www.w3.org/2000/svg">
<path fill-rule="evenodd" clip-rule="evenodd" d="M17.73 5.979L12.96 5.285L10.83 0.962995C10.6645 0.393699 10.1429 0.00213623 9.54999 0.00213623C8.95712 0.00213623 8.43551 0.393699 8.26999 0.962995L6.13999 5.285L1.36999 5.979C0.777703 5.95979 0.244058 6.33448 0.0609779 6.89809C-0.122103 7.4617 0.0894832 8.07847 0.579992 8.411L4.02999 11.775L3.21999 16.526C3.09556 16.9922 3.19538 17.4898 3.48999 17.872C3.71535 18.1328 4.04536 18.2795 4.38999 18.272C4.70236 18.2634 5.00789 18.1786 5.27999 18.025L9.54999 15.782L13.82 18.025C14.0921 18.1786 14.3976 18.2634 14.71 18.272C15.0546 18.2795 15.3846 18.1328 15.61 17.872C15.9 17.4877 15.9993 16.9924 15.88 16.526L15.07 11.775L18.52 8.411C19.0105 8.07847 19.2221 7.4617 19.039 6.89809C18.8559 6.33448 18.3223 5.95979 17.73 5.979ZM17.74 7.615L13.88 11.388L14.79 16.714C14.837 16.8601 14.8263 17.0186 14.76 17.157C14.7442 17.1637 14.7271 17.1664 14.71 17.165C14.5758 17.1556 14.4456 17.1149 14.33 17.046L9.54999 14.531L4.76999 17.046C4.65439 17.1149 4.52423 17.1556 4.38999 17.165C4.37292 17.1664 4.35576 17.1637 4.33999 17.157C4.27371 17.0186 4.26297 16.8601 4.30999 16.714L5.21999 11.388L1.34999 7.615C1.22883 7.52386 1.14665 7.39024 1.11999 7.241C1.22948 7.13421 1.37707 7.07554 1.52999 7.078L6.87999 6.30099L9.26999 1.455C9.2463 1.34114 9.2939 1.22428 9.3904 1.15939C9.4869 1.0945 9.61308 1.0945 9.70959 1.15939C9.80609 1.22428 9.85369 1.34114 9.82999 1.455L12.22 6.30099L17.57 7.078C17.722 7.07947 17.868 7.13719 17.98 7.24C17.9523 7.39166 17.8661 7.52636 17.74 7.615Z" fill="currentColor"/>
</svg>
