<svg width="29" height="24" viewBox="0 0 29 24" fill="none" xmlns="http://www.w3.org/2000/svg">
<path fill-rule="evenodd" clip-rule="evenodd" d="M11.43 23.514L10.93 22.285L18.74 19.127C18.9818 19.0461 19.171 18.8554 19.25 18.613C19.3234 18.401 19.2938 18.167 19.17 17.98L15.88 13.117L19.26 9.85799L19.7 10.529C20.2389 11.3607 20.8266 12.1598 21.46 12.922H26.23V14.25H20.91L20.72 14.066C20.0996 13.3986 19.5344 12.6819 19.03 11.923L17.61 13.299L20.27 17.241C20.6293 17.7636 20.7219 18.4248 20.52 19.026C20.3161 19.6527 19.8318 20.1485 19.21 20.367L11.43 23.514ZM10.21 22.068L9.50001 20.944L14.69 17.699L13.33 16.299C11.33 14.06 10.88 10.934 12.35 9.45499C13.25 8.54299 14.73 7.01399 15.43 6.28799L14.31 4.80899L10.77 4.41899L10.92 3.10099L15.03 3.55399L17.18 6.39099L16.79 6.79899C16.79 6.79899 14.52 9.15299 13.3 10.385C12.36 11.333 12.85 13.769 14.31 15.397L16.79 17.949L10.21 22.068ZM28.29 12.062L22.31 11.117L19.38 4.88799C18.15 3.62899 16.51 2.31099 15.97 2.31099H8.24001V0.984985H15.97C17.36 0.984985 19.73 3.32999 20.42 4.04799L20.49 4.12699L23.22 9.91798L28.5 10.753L28.29 12.062ZM2.90001 22.054L2.26001 20.893L11 16.073L11.65 17.234L2.90001 22.054ZM0.78001 20.854L0.0100098 19.771L9.99001 12.747L10.76 13.83L0.78001 20.854ZM25.23 7.61999C23.5834 7.61171 22.2545 6.27164 22.26 4.62504C22.2655 2.97843 23.6034 1.64728 25.25 1.65003C26.8966 1.65277 28.23 2.98837 28.23 4.63499C28.2279 5.42833 27.9106 6.18831 27.3479 6.7476C26.7852 7.30689 26.0234 7.61964 25.23 7.61699V7.61999ZM25.23 2.97699C24.3159 2.9836 23.5796 3.72882 23.584 4.64293C23.5884 5.55704 24.3319 6.29513 25.246 6.29294C26.1601 6.29075 26.9 5.54911 26.9 4.63499C26.8992 4.19314 26.7227 3.76976 26.4095 3.45817C26.0962 3.14659 25.6718 2.97239 25.23 2.97399V2.97699Z" fill="currentColor"/>
</svg>
