<?xml version="1.0" encoding="utf-8"?>
<!-- Generator: Adobe Illustrator 24.0.1, SVG Export Plug-In . SVG Version: 6.00 Build 0)  -->
<svg version="1.1" id="Warstwa_1" xmlns="http://www.w3.org/2000/svg" xmlns:xlink="http://www.w3.org/1999/xlink" x="0px" y="0px"
	 viewBox="0 0 28 12" style="enable-background:new 0 0 28 12;" xml:space="preserve">
<style type="text/css">
	.st0{fill:#1A9BDB;}
</style>
<g>
	<path class="st0" d="M9,12H3c-1.7,0-3-1.3-3-3V3c0-1.7,1.3-3,3-3h6c1.7,0,3,1.3,3,3v6C12,10.7,10.7,12,9,12z M3,2C2.4,2,2,2.4,2,3
		v6c0,0.6,0.4,1,1,1h6c0.6,0,1-0.4,1-1V3c0-0.6-0.4-1-1-1H3z"/>
</g>
<path class="st0" d="M18.7,10.9l-4.2-4.2c-0.3-0.3-0.3-0.7,0-0.9l0.9-0.9c0.3-0.3,0.7-0.3,0.9,0l2.8,2.8l6.1-6.1
	c0.3-0.3,0.7-0.3,0.9,0l0.9,0.9c0.3,0.3,0.3,0.7,0,0.9l-7.5,7.5C19.4,11.1,18.9,11.1,18.7,10.9z"/>
</svg>
