<?xml version="1.0" encoding="UTF-8" standalone="no"?>
<svg
   xmlns:dc="http://purl.org/dc/elements/1.1/"
   xmlns:cc="http://creativecommons.org/ns#"
   xmlns:rdf="http://www.w3.org/1999/02/22-rdf-syntax-ns#"
   xmlns:svg="http://www.w3.org/2000/svg"
   xmlns="http://www.w3.org/2000/svg"
   xmlns:sodipodi="http://sodipodi.sourceforge.net/DTD/sodipodi-0.dtd"
   xmlns:inkscape="http://www.inkscape.org/namespaces/inkscape"
   inkscape:version="1.0 (1.0+r73+1)"
   sodipodi:docname="dots.svg"
   id="svg881"
   xml:space="preserve"
   viewBox="0 0 5.3333333 1.3333333"
   y="0px"
   x="0px"
   version="1.1"
   fill="#000000"
   width="16"
   height="4"><metadata
     id="metadata887"><rdf:RDF><cc:Work
         rdf:about=""><dc:format>image/svg+xml</dc:format><dc:type
           rdf:resource="http://purl.org/dc/dcmitype/StillImage" /><dc:title></dc:title></cc:Work></rdf:RDF></metadata><defs
     id="defs885" /><sodipodi:namedview
     inkscape:current-layer="svg881"
     inkscape:window-maximized="1"
     inkscape:window-y="27"
     inkscape:window-x="0"
     inkscape:cy="150"
     inkscape:cx="150"
     inkscape:zoom="2.0166667"
     showgrid="false"
     id="namedview883"
     inkscape:window-height="780"
     inkscape:window-width="1600"
     inkscape:pageshadow="2"
     inkscape:pageopacity="0"
     guidetolerance="10"
     gridtolerance="10"
     objecttolerance="10"
     borderopacity="1"
     bordercolor="#666666"
     pagecolor="#ffffff" /><path
     style="stroke-width:0.133333"
     id="path879"
     d="m 3.3333331,0.66666716 c 0,0.37333304 -0.306666,0.66666604 -0.666666,0.66666604 -0.36,0 -0.666667,-0.306666 -0.666667,-0.66666604 0,-0.36 0.306667,-0.66666700375 0.666667,-0.66666700375 0.36,0 0.666666,0.30666700375 0.666666,0.66666700375 z M 4.6666671,1.5625e-7 c -0.373334,0 -0.666667,0.30666700375 -0.666667,0.66666700375 0,0.36000004 0.293333,0.66666604 0.666667,0.66666604 0.373333,0 0.666666,-0.306666 0.666666,-0.66666604 0,-0.36 -0.293333,-0.66666700375 -0.666666,-0.66666700375 z m -3.99999998,0 C 0.29333313,1.5625e-7 1.25e-7,0.30666716 1.25e-7,0.66666716 c 0,0.36000004 0.306667005,0.66666604 0.666667005,0.66666604 0.35999997,0 0.66666597,-0.306666 0.66666597,-0.66666604 0,-0.36 -0.293333,-0.66666700375 -0.66666598,-0.66666700375 z" /></svg>
