<svg id="logo" xmlns="http://www.w3.org/2000/svg" width="57" height="46.031" viewBox="0 0 57 46.031">
  <defs>
    <style>
      .cls-1 {
        fill: #348bd8;
      }

      .cls-1, .cls-2 {
        fill-rule: evenodd;
      }

      .cls-2 {
        fill: #fff;
      }
    </style>
  </defs>
  <path id="Rounded_Rectangle_1" data-name="Rounded Rectangle 1" class="cls-1" d="M34.52,23.2H66.575A12.408,12.408,0,0,1,78.983,35.605V50.6A12.408,12.408,0,0,1,66.575,63.007H59.31l-8.565,6.2-8-6.2H34.52A12.408,12.408,0,0,1,22.112,50.6V35.605A12.408,12.408,0,0,1,34.52,23.2Z" transform="translate(-22.125 -23.188)"/>
  <path class="cls-2" d="M34.929,49.828V42.352a5.985,5.985,0,0,1,1.382-4.166,4.77,4.77,0,0,1,3.724-1.529,4.868,4.868,0,0,1,2.211.508A4.985,4.985,0,0,1,44,38.647a5.125,5.125,0,0,1,1.763-1.49,4.836,4.836,0,0,1,2.2-.5,4.749,4.749,0,0,1,3.7,1.536,5.973,5.973,0,0,1,1.388,4.16v7.476h-2.29V41.917a3.077,3.077,0,0,0-.776-2.189,2.888,2.888,0,0,0-4.053,0,3.077,3.077,0,0,0-.776,2.189v7.911H42.864V41.917a3.046,3.046,0,0,0-.79-2.189,2.688,2.688,0,0,0-2.04-.831A2.641,2.641,0,0,0,38,39.728a3.094,3.094,0,0,0-.77,2.189v7.911h-2.3Zm31.754-5.722a7.506,7.506,0,0,1-2.237,4.377,6.071,6.071,0,0,1-4.264,1.609,6.334,6.334,0,0,1-1.691-.231,6.169,6.169,0,0,1-1.572-.679,6.863,6.863,0,0,1-2.77-8.4,6.906,6.906,0,0,1,1.428-2.189,6.372,6.372,0,0,1,4.632-1.965,6.161,6.161,0,0,1,3.507,1.035,7.415,7.415,0,0,1,2.507,3.013l-8.461,4.694-0.974-1.753,6.277-3.507a3.948,3.948,0,0,0-1.3-.976,3.765,3.765,0,0,0-1.579-.33,3.818,3.818,0,0,0-2.928,1.3,4.906,4.906,0,0,0,.006,6.415,3.976,3.976,0,0,0,5.678.217,5.056,5.056,0,0,0,1.388-2.986Z" transform="translate(-22.125 -23.188)"/>
</svg>
