<svg width="80" height="80" viewBox="0 0 80 80" fill="none" xmlns="http://www.w3.org/2000/svg">
<path d="M26.8008 66.2H72.6008C74.3008 66.2 76.0008 64.9 76.0008 62.8V57.3C76.0008 56 75.6008 55.2 74.7008 54.8C70.9008 52.3 61.6008 45.1 62.0008 34.9" stroke-width="3" stroke-miterlimit="10" stroke-linecap="round" stroke-linejoin="round"/>
<path d="M58.5 21.5C56.4 17.8 53.2 15.5 48.1 12.5C47.7 12.5 48.5 3.6 40.1 3.6C31.2 3.6 32.1 12.1 32.1 12.1C32.1 12.1 18.5 16.3 18.5 35C18.5 35 20.2 45.6 5.4 54.9C4.5 55.2 4 56.5 4 57.3V62.8C4 64.5 5.3 66.2 7.4 66.2H13.7" stroke-width="3" stroke-miterlimit="10" stroke-linecap="round" stroke-linejoin="round"/>
<path d="M26.5 66.5C26.5 71.2 32.8 75.6 39.9 75.6C47 75.6 52.8 71.8 52.8 67.1" stroke-width="3" stroke-miterlimit="10" stroke-linecap="round" stroke-linejoin="round"/>
<path d="M70.5 9.5L5 75" stroke-width="3" stroke-miterlimit="10" stroke-linecap="round" stroke-linejoin="round"/>
</svg>