<svg viewBox="0 0 21 19" fill="none" xmlns="http://www.w3.org/2000/svg"><path d="M10.424 15.5681C10.424 15.5681 12.32 15.5681 13.28 15.5681C14.24 15.5681 15.008 14.8001 15.008 13.8401C15.008 12.8801 15.008 8.68012 15.008 7.78412C15.008 6.88812 14.24 6.12012 13.28 6.12012C12.32 6.12012 4.26 6.12012 3.3 6.12012C2.34 6.12012 1.5 6.88812 1.5 7.84812C1.5 8.80812 1.5 12.9441 1.5 13.9041C1.5 14.8641 2.404 15.6321 3.3 15.6321C4.196 15.6321 6 15.6321 6 15.6321L8.3 17.5L10.424 15.5681Z" stroke-width="2" stroke-linejoin="round"/><path d="M16.48 11.344H17.928C18.888 11.344 19.656 10.576 19.656 9.61603V3.56003C19.656 2.60003 18.888 1.83203 17.928 1.83203H8.144C7.184 1.83203 6.416 2.60003 6.416 3.56003V4.64803" stroke-width="2" stroke-linejoin="round"/></svg>
