<?xml version="1.0" encoding="utf-8"?>
<!-- Generator: Adobe Illustrator 24.1.2, SVG Export Plug-In . SVG Version: 6.00 Build 0)  -->
<svg version="1.1" id="Layer_1" xmlns="http://www.w3.org/2000/svg" xmlns:xlink="http://www.w3.org/1999/xlink" x="0px" y="0px"
	 viewBox="0 0 8.2 8.2" style="enable-background:new 0 0 8.2 8.2;" xml:space="preserve">
<style type="text/css">
	.st0{fill-rule:evenodd;clip-rule:evenodd;fill:#DB2E1B;}
</style>
<path class="st0" d="M7.9,7.9C7.6,8.3,7,8.3,6.7,7.9L4.1,5.4L1.5,7.9c-0.4,0.3-0.9,0.3-1.3,0c-0.3-0.4-0.3-0.9,0-1.3l2.6-2.6
	L0.3,1.5c-0.3-0.4-0.3-0.9,0-1.3c0.3-0.4,0.9-0.3,1.3,0l2.6,2.5l2.5-2.5C7-0.1,7.6,0,7.9,0.3c0.3,0.3,0.3,0.8,0,1.2L5.4,4.1l2.6,2.6
	C8.3,7,8.3,7.6,7.9,7.9z"/>
</svg>
