<?xml version="1.0" encoding="utf-8"?>
<!-- Generator: Adobe Illustrator 24.1.2, SVG Export Plug-In . SVG Version: 6.00 Build 0)  -->
<svg version="1.1" id="Layer_1" xmlns="http://www.w3.org/2000/svg" xmlns:xlink="http://www.w3.org/1999/xlink" x="0px" y="0px"
	 viewBox="0 0 15.4 8.1" style="enable-background:new 0 0 15.4 8.1;" xml:space="preserve">
<path id="Shape_2_copy_14" class="st0" d="M4.2,8.1C4.1,8.1,4,8.1,3.9,8L0.3,4.4c-0.3-0.3-0.3-0.9,0-1.3C0.4,3,0.7,2.9,0.9,2.9
	c0.2,0,0.5,0.1,0.6,0.3l2.7,2.6l5.6-5.5c0.3-0.4,0.9-0.4,1.3,0c0,0,0,0,0,0c0.3,0.3,0.4,0.9,0,1.3c0,0,0,0,0,0L4.5,8
	C4.4,8.1,4.3,8.1,4.2,8.1z"/>
<path id="Shape_2_copy_14_1_" class="st0" d="M8.3,8.1C8.2,8.1,8.1,8.1,8,8L5.9,5.9C5.6,5.6,5.6,5,5.9,4.7c0.2-0.2,0.4-0.3,0.6-0.3
	c0.2,0,0.5,0.1,0.6,0.3l1.1,1.1l5.6-5.5c0.3-0.4,0.9-0.4,1.3,0c0,0,0,0,0,0c0.3,0.3,0.4,0.9,0,1.3c0,0,0,0,0,0L8.6,8
	C8.5,8.1,8.4,8.1,8.3,8.1z"/>
</svg>
