<svg id="sidebar_handler_icon" data-name="sidebar handler icon" xmlns="http://www.w3.org/2000/svg" width="8.2" height="5.69" viewBox="0 0 8.2 5.69">
  <defs>
    <style>
      .cls-1 {
        fill: #afafaf;
        fill-rule: evenodd;
      }
    </style>
  </defs>
  <path id="Shape_1_copy_13" data-name="Shape 1 copy 13" class="cls-1" d="M11771.8,1621.17a0.458,0.458,0,0,0,.2.47l2.1,2.18a0.739,0.739,0,0,0,1,0,0.811,0.811,0,0,0,0-.94l-1.7-1.71,1.7-1.7a0.827,0.827,0,0,0,0-.95,0.753,0.753,0,0,0-1,0l-2.1,2.18A0.472,0.472,0,0,0,11771.8,1621.17Z" transform="translate(-11771.8 -1618.34)"/>
  <path id="Shape_1_copy_14" data-name="Shape 1 copy 14" class="cls-1" d="M11776.5,1621.17a0.458,0.458,0,0,0,.2.47l2.1,2.18a0.739,0.739,0,0,0,1,0,0.6,0.6,0,0,0,0-.94l-1.7-1.71,1.7-1.7a0.614,0.614,0,0,0,0-.95,0.634,0.634,0,0,0-.5-0.19,0.8,0.8,0,0,0-.5.19l-2.1,2.18A0.472,0.472,0,0,0,11776.5,1621.17Z" transform="translate(-11771.8 -1618.34)"/>
</svg>
