<svg width="20" height="19" viewBox="0 0 20 19" fill="none" xmlns="http://www.w3.org/2000/svg">
<path fill-rule="evenodd" clip-rule="evenodd" d="M17.7303 5.979L12.9603 5.285L10.8303 0.962995C10.6648 0.393699 10.1432 0.00213623 9.55033 0.00213623C8.95746 0.00213623 8.43584 0.393699 8.27033 0.962995L6.14033 5.285L1.37033 5.979C0.778039 5.95979 0.244394 6.33448 0.0613136 6.89809C-0.121767 7.4617 0.0898189 8.07847 0.580327 8.411L4.03033 11.775L3.22033 16.526C3.0959 16.9922 3.19571 17.4898 3.49033 17.872C3.71568 18.1328 4.04569 18.2795 4.39033 18.272C4.70269 18.2634 5.00823 18.1786 5.28033 18.025L9.55033 15.782L13.8203 18.025C14.0924 18.1786 14.398 18.2634 14.7103 18.272C15.055 18.2795 15.385 18.1328 15.6103 17.872C15.9003 17.4877 15.9997 16.9924 15.8803 16.526L15.0703 11.775L18.5203 8.411C19.0108 8.07847 19.2224 7.4617 19.0393 6.89809C18.8563 6.33448 18.3226 5.95979 17.7303 5.979ZM17.7403 7.615L13.8803 11.388L14.7903 16.714C14.8373 16.8601 14.8266 17.0186 14.7603 17.157C14.7446 17.1637 14.7274 17.1664 14.7103 17.165C14.5761 17.1556 14.4459 17.1149 14.3303 17.046L9.55033 14.531L4.77033 17.046C4.65473 17.1149 4.52457 17.1556 4.39033 17.165C4.37326 17.1664 4.35609 17.1637 4.34033 17.157C4.27405 17.0186 4.26331 16.8601 4.31033 16.714L5.22033 11.388L1.35033 7.615C1.22916 7.52386 1.14699 7.39024 1.12033 7.241C1.22982 7.13421 1.3774 7.07554 1.53033 7.078L6.88033 6.30099L9.27033 1.455C9.24663 1.34114 9.29423 1.22428 9.39073 1.15939C9.48724 1.0945 9.61342 1.0945 9.70992 1.15939C9.80642 1.22428 9.85402 1.34114 9.83033 1.455L12.2203 6.30099L17.5703 7.078C17.7223 7.07947 17.8684 7.13719 17.9803 7.24C17.9527 7.39166 17.8665 7.52636 17.7403 7.615Z" fill="#AAC4D1"/>
</svg>
