<svg width="26" height="23" viewBox="0 0 26 23" fill="none" xmlns="http://www.w3.org/2000/svg">
<path fill-rule="evenodd" clip-rule="evenodd" d="M25.2032 12.046C25.0308 12.0447 24.8644 11.9827 24.7332 11.871L12.9332 1.67099L1.19817 11.864C0.898995 12.1235 0.446385 12.0927 0.185167 11.795C0.0597722 11.6526 -0.00348541 11.4659 0.00947387 11.2766C0.0224332 11.0873 0.110534 10.911 0.254167 10.787L12.4602 0.186994C12.7306 -0.0469097 13.1317 -0.0469097 13.4022 0.186994L25.6832 10.794C25.9078 10.9914 25.9858 11.3078 25.8788 11.587C25.7717 11.8662 25.5022 12.0493 25.2032 12.046ZM22.1942 11.583L13.4232 3.80999C13.1501 3.56777 12.7392 3.56777 12.4662 3.80999L3.73817 11.593C3.58636 11.7286 3.49944 11.9224 3.49917 12.126V22.064C3.50082 22.4592 3.82196 22.7785 4.21717 22.778H11.4042V17.125H14.5302V22.781H21.7172C22.1124 22.7815 22.4335 22.4622 22.4352 22.067V12.119C22.4362 11.9133 22.3483 11.7172 22.1942 11.581V11.583ZM20.9942 21.35H15.9602V16.411C15.9599 16.2211 15.8842 16.0391 15.7497 15.905C15.6153 15.7709 15.4331 15.6957 15.2432 15.696H10.6812C10.4913 15.6957 10.309 15.7709 10.1746 15.905C10.0401 16.0391 9.96443 16.2211 9.96417 16.411V21.35H4.93017V12.45L12.9422 5.30499L20.9942 12.441V21.354V21.35Z" fill="#AAC4D1"/>
</svg>
