<svg id="Layer_1" data-name="Layer 1" xmlns="http://www.w3.org/2000/svg" viewBox="0 0 25 25"><defs><style>.cls-1{fill:none;stroke:#aac5d1;stroke-miterlimit:10;stroke-width:2px;}.cls-2{fill:#aac5d1;}.cls-3{fill:#fff;}</style></defs><title>KnowledgeOwl</title><rect class="cls-1" x="1" y="1" width="23" height="23" rx="4" ry="4"/><path class="cls-2" d="M21.41,7.36a.86.86,0,0,0-1.56-.42,6.42,6.42,0,0,1-4.3.79,9,9,0,0,0-2.81-.29,9,9,0,0,0-2.81.29,6.42,6.42,0,0,1-4.3-.79.86.86,0,0,0-1.56.42c-.3,1.12.51,3.85.27,5.16-.4,2.25,1.09,6.57,6.89,5.6a1.7,1.7,0,0,0,1.51,1.09,1.7,1.7,0,0,0,1.51-1.09c5.8,1,7.29-3.35,6.89-5.6C20.9,11.21,21.71,8.48,21.41,7.36Z"/><path class="cls-3" d="M16.35,9.31a4.07,4.07,0,0,0-3.6,2.17,4.07,4.07,0,1,0,0,3.8,4.07,4.07,0,1,0,3.6-6Z"/><path class="cls-2" d="M10.5,14A1.5,1.5,0,0,1,9,12.5a1.47,1.47,0,0,1,.3-.89c-.11,0-.22,0-.34,0a2,2,0,1,0,2,2.35A1.48,1.48,0,0,1,10.5,14Z"/><path class="cls-2" d="M17,12.5a1.52,1.52,0,0,1,.23-.79,2,2,0,0,0-.69-.13A2,2,0,1,0,18.48,14,1.5,1.5,0,0,1,17,12.5Z"/></svg>