<svg id="Layer_1" data-name="Layer 1" xmlns="http://www.w3.org/2000/svg" viewBox="0 0 25 25"><defs><style>.cls-1{fill:#348ad7;}.cls-2{fill:#fff;}</style></defs><title>KnowledgeOwl2</title><rect class="cls-1" width="25" height="25" rx="4" ry="4"/><path class="cls-2" d="M22.55,6.75a1,1,0,0,0-1.76-.48c-.39.47-3.52,1.41-4.86.89a10.62,10.62,0,0,0-3.18-.32,10.65,10.65,0,0,0-3.18.32c-1.33.52-4.47-.42-4.85-.89A1,1,0,0,0,3,6.75c-.33,1.26.58,4.34.31,5.83C2.8,15.12,4.49,20,11,18.91a1.94,1.94,0,0,0,1.71,1.23,1.94,1.94,0,0,0,1.71-1.23C21,20,22.7,15.12,22.24,12.58,22,11.09,22.89,8,22.55,6.75Z"/><path class="cls-1" d="M16.83,9a4.61,4.61,0,0,0-4.07,2.45,4.6,4.6,0,1,0,0,4.3A4.6,4.6,0,1,0,16.83,9Z"/><circle class="cls-2" cx="8.49" cy="13.76" r="2.25"/><circle class="cls-1" cx="8.49" cy="13.76" r="0.63"/><circle class="cls-2" cx="17.02" cy="13.76" r="2.25"/><circle class="cls-1" cx="17.02" cy="13.76" r="0.63"/></svg>