<svg id="Layer_1" data-name="Layer 1" xmlns="http://www.w3.org/2000/svg" viewBox="0 0 25 25"><defs><style>.cls-1{fill:none;stroke:#aac5d1;stroke-miterlimit:10;stroke-width:2px;}.cls-2{fill:#aac5d1;}</style></defs><title>Parature</title><rect class="cls-1" x="1" y="1" width="23" height="23" rx="4" ry="4"/><ellipse class="cls-2" cx="11.93" cy="8.54" rx="2.69" ry="1.97" transform="translate(-2.71 7.61) rotate(-31.96)"/><path class="cls-2" d="M18.31,8.49A3.2,3.2,0,0,0,16,6a2.66,2.66,0,0,1,.52.59c1,1.62,0,4.1-2.35,5.54s-5,1.29-6-.33a2.65,2.65,0,0,1-.38-1.28h0a3.15,3.15,0,0,0-.14,2.39L10.08,20l1.34-4.53S18.48,14.88,18.31,8.49Z"/></svg>