<svg id="Layer_1" data-name="Layer 1" xmlns="http://www.w3.org/2000/svg" viewBox="0 0 25 25"><defs><style>.cls-1{fill:#348ad7;}.cls-2{fill:#fff;}</style></defs><title>Salesforce2</title><rect class="cls-1" width="25" height="25" rx="4" ry="4"/><g id="_23akPv" data-name="23akPv"><path class="cls-2" d="M11.42,8.31a3,3,0,0,1,2.69-.79A2.71,2.71,0,0,1,15.78,8.6a.49.49,0,0,0,.67.22,3.5,3.5,0,1,1,1,6.84,1.26,1.26,0,0,0-1.11.47,2.38,2.38,0,0,1-2.63.68.39.39,0,0,0-.54.2,2.91,2.91,0,0,1-5.13-.11.56.56,0,0,0-.65-.32,2.63,2.63,0,0,1-2.72-2,2.72,2.72,0,0,1,1-2.92.43.43,0,0,0,.19-.56,3.08,3.08,0,0,1,1.45-3.6,3.19,3.19,0,0,1,3.9.58Z"/></g></svg>