<svg id="Layer_1" data-name="Layer 1" xmlns="http://www.w3.org/2000/svg" viewBox="0 0 25 25"><defs><style>.cls-1{fill:none;stroke:#aac5d1;stroke-miterlimit:10;stroke-width:2px;}</style></defs><title>Salesforce</title><rect class="cls-1" x="1" y="1" width="23" height="23" rx="4" ry="4"/><g id="_23akPv" data-name="23akPv"><path class="cls-1" d="M11,8.24a2.78,2.78,0,0,1,2.53-.74,2.48,2.48,0,0,1,1.57,1,.46.46,0,0,0,.63.2,3.29,3.29,0,1,1,.94,6.43,1.17,1.17,0,0,0-1,.44,2.25,2.25,0,0,1-2.48.64.36.36,0,0,0-.5.19,2.74,2.74,0,0,1-4.82-.11.53.53,0,0,0-.61-.3,2.48,2.48,0,0,1-2.56-1.87,2.56,2.56,0,0,1,.9-2.74.42.42,0,0,0,.19-.53A2.89,2.89,0,0,1,7.12,7.48,3,3,0,0,1,10.78,8Z"/></g></svg>