<svg width="29" height="24" viewBox="0 0 29 24" fill="none" xmlns="http://www.w3.org/2000/svg">
<path fill-rule="evenodd" clip-rule="evenodd" d="M11.4298 23.514L10.9298 22.285L18.7398 19.127C18.9816 19.0461 19.1708 18.8554 19.2498 18.613C19.3231 18.401 19.2936 18.167 19.1698 17.98L15.8798 13.117L19.2598 9.85799L19.6998 10.529C20.2386 11.3607 20.8263 12.1598 21.4598 12.922H26.2298V14.25H20.9098L20.7198 14.066C20.0993 13.3986 19.5341 12.6819 19.0298 11.923L17.6098 13.299L20.2698 17.241C20.6291 17.7636 20.7217 18.4248 20.5198 19.026C20.3159 19.6527 19.8315 20.1485 19.2098 20.367L11.4298 23.514ZM10.2098 22.068L9.49977 20.944L14.6898 17.699L13.3298 16.299C11.3298 14.06 10.8798 10.934 12.3498 9.45499C13.2498 8.54299 14.7298 7.01399 15.4298 6.28799L14.3098 4.80899L10.7698 4.41899L10.9198 3.10099L15.0298 3.55399L17.1798 6.39099L16.7898 6.79899C16.7898 6.79899 14.5198 9.15299 13.2998 10.385C12.3598 11.333 12.8498 13.769 14.3098 15.397L16.7898 17.949L10.2098 22.068ZM28.2898 12.062L22.3098 11.117L19.3798 4.88799C18.1498 3.62899 16.5098 2.31099 15.9698 2.31099H8.23977V0.984985H15.9698C17.3598 0.984985 19.7298 3.32999 20.4198 4.04799L20.4898 4.12699L23.2198 9.91798L28.4998 10.753L28.2898 12.062ZM2.89977 22.054L2.25977 20.893L10.9998 16.073L11.6498 17.234L2.89977 22.054ZM0.779766 20.854L0.00976562 19.771L9.98977 12.747L10.7598 13.83L0.779766 20.854ZM25.2298 7.61999C23.5832 7.61171 22.2543 6.27164 22.2598 4.62504C22.2653 2.97843 23.6031 1.64728 25.2497 1.65003C26.8964 1.65277 28.2297 2.98837 28.2298 4.63499C28.2276 5.42833 27.9103 6.18831 27.3477 6.7476C26.785 7.30689 26.0231 7.61964 25.2298 7.61699V7.61999ZM25.2298 2.97699C24.3157 2.9836 23.5794 3.72882 23.5838 4.64293C23.5882 5.55704 24.3316 6.29513 25.2457 6.29294C26.1599 6.29075 26.8997 5.54911 26.8998 4.63499C26.899 4.19314 26.7225 3.76976 26.4092 3.45817C26.0959 3.14659 25.6716 2.97239 25.2298 2.97399V2.97699Z" fill="#AAC4D1"/>
</svg>
