<svg id="Layer_1" data-name="Layer 1" xmlns="http://www.w3.org/2000/svg" viewBox="0 0 25 25"><defs><style>.cls-1{fill:#348ad7;}.cls-2,.cls-3{fill:#fff;}.cls-3{opacity:0.3;}</style></defs><title>Video2</title><rect class="cls-1" width="25" height="25" rx="4" ry="4"/><path class="cls-2" d="M21.05,13.48l-5.42,4.43A1,1,0,0,1,14,17.13V8.29a1,1,0,0,1,1.63-.78l5.42,4.42A1,1,0,0,1,21.05,13.48Z"/><path class="cls-3" d="M12.05,13.48,6.63,17.91A1,1,0,0,1,5,17.13V8.29a1,1,0,0,1,1.63-.78l5.42,4.42A1,1,0,0,1,12.05,13.48Z"/></svg>