<svg width="27px" height="24px" viewBox="0 0 27 24" version="1.1" xmlns="http://www.w3.org/2000/svg" xmlns:xlink="http://www.w3.org/1999/xlink">
    <g id="bot-icon">
        <path d="M21,3.5 C22.5187831,3.5 23.8937831,4.11560847 24.8890873,5.1109127 C25.8843915,6.10621694 26.5,7.48121694 26.5,9 L26.5,9 L26.5,14 C26.5,15.5187831 25.8843915,16.8937831 24.8890873,17.8890873 C23.8937831,18.8843915 22.5187831,19.5 21,19.5 L21,19.5 L16.7731159,19.5 L13.5,23.2407039 L10.2268841,19.5 L6,19.5 C4.48121694,19.5 3.10621694,18.8843915 2.1109127,17.8890873 C1.11560847,16.8937831 0.5,15.5187831 0.5,14 L0.5,14 L0.5,9 C0.5,7.48121694 1.11560847,6.10621694 2.1109127,5.1109127 C3.10621694,4.11560847 4.48121694,3.5 6,3.5 L6,3.5 Z" id="Combined-Shape" fill="none"></path>
        <rect id="Rectangle" x="7" y="9" width="2" height="5" stroke-width="0"></rect>
        <rect id="Rectangle-Copy-4" x="19" y="9" width="2" stroke-width="0" height="5"></rect>
        <rect id="Rectangle-Copy-2" x="11" y="9" width="2" stroke-width="0" height="8"></rect>
        <rect id="Rectangle-Copy-3" x="15" y="7" width="2" stroke-width="0" height="8"></rect>
    </g>
</svg>