<svg xmlns="http://www.w3.org/2000/svg" width="20" height="21" fill="none">
    <path fill="currentColor" d="M18.773 13.128c-.24-.235-.458-.446-.665-.654-1.472-1.428-2.137-2.08-2.137-4.184v-.654h-.043a5.88 5.88 0 00-1.069-2.806 5.98 5.98 0 00-2.344-1.977 2.585 2.585 0 00-5.168 0A6.09 6.09 0 004.992 4.83a5.978 5.978 0 00-1.057 2.806H3.89v.654c0 2.105-.665 2.757-2.137 4.185-.218.205-.425.415-.665.654l-.665.667a1.381 1.381 0 00-.414 1v1.209c0 .783.634 1.417 1.417 1.417H5.8c.31.73.806 1.365 1.44 1.842a4.494 4.494 0 005.385 0 4.596 4.596 0 001.44-1.842h4.371c.783 0 1.417-.634 1.417-1.417v-1.211a1.426 1.426 0 00-.414-1l-.665-.666zm-6.945 5.077a3.162 3.162 0 01-3.794 0 3.11 3.11 0 01-.72-.749h5.223a3.062 3.062 0 01-.709.75zm6.705-2.201a.097.097 0 01-.098.096H1.427a.097.097 0 01-.098-.096v-1.21a.139.139 0 01.022-.068l.676-.667c.229-.227.436-.436.643-.638 1.395-1.356 2.366-2.29 2.518-4.47h.022v-.654a4.709 4.709 0 013.064-4.403l.512-.195-.098-.545a1.265 1.265 0 112.486-.002l-.11.545.524.195a4.78 4.78 0 012.203 1.698c.555.792.852 1.737.85 2.705v.654h.033c.152 2.18 1.112 3.113 2.507 4.47.207.202.425.41.654.638l.665.668c.021.016.033.04.033.066V16.005z"/>
</svg>