<svg xmlns="http://www.w3.org/2000/svg" width="15" height="15" fill="none">
  <path fill="currentColor" d="M7.5.234C3.486.234.234 3.516.234 7.5A7.264 7.264 0 007.5 14.766c3.984 0 7.266-3.252 7.266-7.266 0-3.984-3.282-7.266-7.266-7.266zm2.402 10.489c-.117.117-.234.234-.351.322a.699.699 0 00-.176.322c-.03.176-.059.323-.117.498l-.528 1.377c-.41.088-.82.117-1.23.117v-.79c.03-.381-.234-1.055-.674-1.495a.928.928 0 01-.263-.674v-.937c0-.322-.206-.645-.499-.82A34.017 34.017 0 004.63 7.88c-.322-.176-.645-.381-.908-.645h-.03a3.455 3.455 0 01-.527-.615A65.998 65.998 0 012.14 5.127a5.888 5.888 0 013.017-2.988l.703.351c.323.147.704-.058.704-.41V1.73c.205-.03.468-.06.703-.06l.82.821a.496.496 0 010 .674l-.117.117-.322.323a.23.23 0 000 .322l.146.146a.23.23 0 010 .323l-.234.234a.314.314 0 01-.176.059h-.264a.161.161 0 00-.146.087l-.293.264c-.059.059-.088.117-.088.176 0 .03.03.088.03.117l.468.908c.058.147-.03.323-.205.323h-.176c-.059 0-.117 0-.146-.03L6.27 6.27c-.059-.059-.206-.088-.293-.088H5.83l-.908.322c-.147.03-.234.176-.234.322 0 .147.058.264.175.322l.323.147c.293.146.586.205.908.205.293 0 .644.82.937.938h1.934c.264 0 .498.117.674.292l.41.41c.146.118.264.41.264.616 0 .322-.206.762-.41.967zm2.55-2.666a.9.9 0 01-.44-.293l-.528-.791a.954.954 0 01-.117-.41c0-.118.059-.264.117-.381l.586-.85c.059-.117.147-.176.264-.234l.38-.205c.411.79.645 1.67.645 2.607 0 .264-.029.527-.058.762z"/>
</svg>
