<svg xmlns="http://www.w3.org/2000/svg" width="87.3" height="64.75" fill="none">
    <path stroke="currentColor" stroke-linecap="round" stroke-linejoin="round" stroke-miterlimit="10" stroke-width="3" d="M58.7 55.6h11.5c8.6 0 15.6-6.9 15.6-15.5 0-7.4-5.1-13.5-12-15.1l.2.1-.2-.1v-.3c0-7.5-6.1-13.5-13.5-13.5-2 0-3.8.4-5.5 1.2l-.3-.5.3.5C51.5 5.9 44.7 1.5 37 1.5c-11.1 0-20.1 9-20.1 20.1 0 1 .1 2 .2 2.9l-.1.1c-8.6 0-15.5 6.9-15.5 15.5S8.4 55.6 17 55.6h11.8M36.1 47.95l15.3 15.3M51.45 47.95l-15.4 15.3"/>
</svg>