<svg xmlns="http://www.w3.org/2000/svg" width="74.85" height="74.7" fill="none">
  <g stroke="currentColor" stroke-linecap="round" stroke-linejoin="round" stroke-miterlimit="10" stroke-width="3">
    <path d="M56 19.4c-2.1-3.7-5.3-6-10.4-9-.4 0 .4-8.9-8-8.9-8.9 0-8 8.5-8 8.5S16 14.2 16 32.9c0 0 1.7 10.6-13.1 19.9-.9.3-1.4 1.6-1.4 2.4v5.5c0 1.7 1.3 3.4 3.4 3.4h6.3M24.15 64.1h45.8c1.7 0 3.4-1.3 3.4-3.4v-5.5c0-1.3-.4-2.1-1.3-2.5-3.8-2.5-13.1-9.7-12.7-19.9M24.15 64.1c0 4.7 6.3 9.1 13.4 9.1 7.1 0 12.9-3.8 12.9-8.5M68.442 6.872l-65.5 65.5"/>
  </g>
</svg>